<svg width="299" height="539" viewBox="0 0 299 539" fill="none" xmlns="http://www.w3.org/2000/svg">
<path fill-rule="evenodd" clip-rule="evenodd" d="M512 269.5C512 403.429 403.429 512 269.5 512C135.571 512 27 403.429 27 269.5C27 135.571 135.571 27 269.5 27C403.429 27 512 135.571 512 269.5ZM539 269.5C539 418.341 418.341 539 269.5 539C120.659 539 0 418.341 0 269.5C0 120.659 120.659 0 269.5 0C418.341 0 539 120.659 539 269.5ZM269.5 120.729C287.613 120.729 302.296 106.045 302.296 87.9324C302.296 69.8195 287.613 55.1361 269.5 55.1361C251.387 55.1361 236.704 69.8195 236.704 87.9324C236.704 106.045 251.387 120.729 269.5 120.729ZM315.605 269.5C315.605 294.963 294.963 315.605 269.5 315.605C244.037 315.605 223.395 294.963 223.395 269.5C223.395 244.037 244.037 223.395 269.5 223.395C294.963 223.395 315.605 244.037 315.605 269.5ZM302.296 451.068C302.296 469.181 287.613 483.864 269.5 483.864C251.387 483.864 236.704 469.181 236.704 451.068C236.704 432.955 251.387 418.272 269.5 418.272C287.613 418.272 302.296 432.955 302.296 451.068ZM87.9321 302.296C69.8192 302.296 55.1358 287.613 55.1358 269.5C55.1358 251.387 69.8192 236.704 87.9321 236.704C106.045 236.704 120.728 251.387 120.728 269.5C120.728 287.613 106.045 302.296 87.9321 302.296ZM418.272 269.5C418.272 287.613 432.955 302.296 451.068 302.296C469.181 302.296 483.864 287.613 483.864 269.5C483.864 251.387 469.181 236.704 451.068 236.704C432.955 236.704 418.272 251.387 418.272 269.5ZM117.922 164.302C105.114 151.495 105.114 130.729 117.922 117.921C130.73 105.114 151.495 105.114 164.303 117.921C177.11 130.729 177.11 151.495 164.303 164.302C151.495 177.11 130.73 177.11 117.922 164.302ZM374.697 374.698C361.89 387.505 361.89 408.271 374.697 421.079C387.505 433.886 408.271 433.886 421.078 421.079C433.886 408.271 433.886 387.505 421.078 374.698C408.271 361.89 387.505 361.89 374.697 374.698ZM164.303 421.078C151.495 433.886 130.729 433.886 117.922 421.078C105.114 408.27 105.114 387.505 117.922 374.697C130.729 361.889 151.495 361.889 164.303 374.697C177.11 387.505 177.11 408.27 164.303 421.078ZM374.698 164.303C387.505 177.111 408.271 177.111 421.078 164.303C433.886 151.495 433.886 130.73 421.078 117.922C408.271 105.114 387.505 105.114 374.698 117.922C361.89 130.73 361.89 151.495 374.698 164.303ZM269.5 353.247C315.752 353.247 353.247 315.753 353.247 269.5C353.247 223.248 315.752 185.753 269.5 185.753C223.248 185.753 185.753 223.248 185.753 269.5C185.753 315.753 223.248 353.247 269.5 353.247ZM269.5 380.247C330.664 380.247 380.247 330.664 380.247 269.5C380.247 208.337 330.664 158.753 269.5 158.753C208.336 158.753 158.753 208.337 158.753 269.5C158.753 330.664 208.336 380.247 269.5 380.247Z" fill="#F77F00" fill-opacity="0.2"/>
</svg>
