<svg width="637" height="597" viewBox="0 0 637 597" fill="none" xmlns="http://www.w3.org/2000/svg">
<path fill-rule="evenodd" clip-rule="evenodd" d="M610 384.5C610 581.942 449.942 742 252.5 742C55.0582 742 -105 581.942 -105 384.5C-105 187.058 55.0582 27 252.5 27C449.942 27 610 187.058 610 384.5ZM637 384.5C637 596.854 464.854 769 252.5 769C40.1465 769 -132 596.854 -132 384.5C-132 172.147 40.1465 0 252.5 0C464.854 0 637 172.147 637 384.5ZM252.5 172.246C278.342 172.246 299.291 151.297 299.291 125.455C299.291 99.6127 278.342 78.6636 252.5 78.6636C226.658 78.6636 205.709 99.6127 205.709 125.455C205.709 151.297 226.658 172.246 252.5 172.246ZM318.279 384.5C318.279 420.829 288.829 450.279 252.5 450.279C216.171 450.279 186.721 420.829 186.721 384.5C186.721 348.172 216.171 318.722 252.5 318.722C288.829 318.722 318.279 348.172 318.279 384.5ZM299.291 643.546C299.291 669.388 278.342 690.337 252.5 690.337C226.658 690.337 205.709 669.388 205.709 643.546C205.709 617.704 226.658 596.755 252.5 596.755C278.342 596.755 299.291 617.704 299.291 643.546ZM-6.54591 431.291C-32.3879 431.291 -53.3369 410.342 -53.3369 384.5C-53.3369 358.658 -32.3879 337.709 -6.54591 337.709C19.2961 337.709 40.2451 358.658 40.2451 384.5C40.2451 410.342 19.2961 431.291 -6.54591 431.291ZM464.755 384.5C464.755 410.342 485.704 431.291 511.546 431.291C537.388 431.291 558.337 410.342 558.337 384.5C558.337 358.658 537.388 337.709 511.546 337.709C485.704 337.709 464.755 358.658 464.755 384.5ZM36.2409 234.413C17.9679 216.14 17.9679 186.513 36.2409 168.24C54.5139 149.967 84.1404 149.967 102.413 168.24C120.686 186.513 120.686 216.14 102.413 234.413C84.1403 252.686 54.5139 252.686 36.2409 234.413ZM402.587 534.587C384.314 552.86 384.314 582.487 402.587 600.76C420.86 619.033 450.486 619.033 468.759 600.76C487.032 582.487 487.032 552.86 468.759 534.587C450.486 516.314 420.86 516.314 402.587 534.587ZM102.413 600.759C84.1401 619.032 54.5137 619.032 36.2407 600.759C17.9676 582.486 17.9676 552.859 36.2407 534.586C54.5137 516.313 84.1401 516.313 102.413 534.586C120.686 552.859 120.686 582.486 102.413 600.759ZM402.587 234.413C420.86 252.686 450.486 252.686 468.759 234.413C487.032 216.14 487.032 186.514 468.759 168.241C450.486 149.968 420.86 149.968 402.587 168.241C384.314 186.514 384.314 216.14 402.587 234.413ZM252.5 515.505C324.852 515.505 383.504 456.852 383.504 384.5C383.504 312.149 324.852 253.496 252.5 253.496C180.148 253.496 121.496 312.149 121.496 384.5C121.496 456.852 180.148 515.505 252.5 515.505ZM252.5 542.505C339.763 542.505 410.504 471.764 410.504 384.5C410.504 297.237 339.763 226.496 252.5 226.496C165.237 226.496 94.4955 297.237 94.4955 384.5C94.4955 471.764 165.237 542.505 252.5 542.505Z" fill="#F77F00" fill-opacity="0.2"/>
</svg>
